# xmcd
#
# Track frame offsets: 
#        150
#        14733
#        26292
#        38020
#        45664
#        52615
#        65020
#        79091
#        93018
#        103016
#        117814
#        131359
#        144677
#        152853
#
# Disc length: 2189 seconds
#
# Revision: 0
# Processed by: cddbd v1.5PL3 Copyright (c) Steve Scherf et al.
# Submitted via: ExactAudioCopy v0.90b4
#
DISCID=ab088b0e
DTITLE=Isulatine - Sogni d'Aprile
DYEAR=2004
DGENRE=A Cappella
TTITLE0=In Mare di Terraniu
TTITLE1=Dormi per Pena
TTITLE2=Arietta
TTITLE3=Gagvigda
TTITLE4=E Stelle
TTITLE5=Aprile
TTITLE6=A Ricchezza
TTITLE7=E Tant'omi muti
TTITLE8=Terzettu
TTITLE9=Figliolu di Guerra
TTITLE10=Old Cotton
TTITLE11=Nanninna la Mia Diletta
TTITLE12=Voce d'Oru Isulatine
TTITLE13=Duie è Una
EXTD=
EXTT0=
EXTT1=
EXTT2=
EXTT3=
EXTT4=
EXTT5=
EXTT6=
EXTT7=
EXTT8=
EXTT9=
EXTT10=
EXTT11=
EXTT12=
EXTT13=
PLAYORDER=
